<svg id="visual" viewBox="0 0 900 600" width="900" height="600" xmlns="http://www.w3.org/2000/svg" xmlns:xlink="http://www.w3.org/1999/xlink" version="1.1"><path d="M701 600L695 592.3C689 584.7 677 569.3 662 554C647 538.7 629 523.3 630.5 508C632 492.7 653 477.3 657.5 461.8C662 446.3 650 430.7 672.5 415.2C695 399.7 752 384.3 743 369C734 353.7 659 338.3 630.5 323C602 307.7 620 292.3 630.5 277C641 261.7 644 246.3 642.5 231C641 215.7 635 200.3 633.5 184.8C632 169.3 635 153.7 644 138.2C653 122.7 668 107.3 678.5 92C689 76.7 695 61.3 683 46C671 30.7 641 15.3 626 7.7L611 0L900 0L900 7.7C900 15.3 900 30.7 900 46C900 61.3 900 76.7 900 92C900 107.3 900 122.7 900 138.2C900 153.7 900 169.3 900 184.8C900 200.3 900 215.7 900 231C900 246.3 900 261.7 900 277C900 292.3 900 307.7 900 323C900 338.3 900 353.7 900 369C900 384.3 900 399.7 900 415.2C900 430.7 900 446.3 900 461.8C900 477.3 900 492.7 900 508C900 523.3 900 538.7 900 554C900 569.3 900 584.7 900 592.3L900 600Z" fill="#76ff99"></path><path d="M611 600L612.5 592.3C614 584.7 617 569.3 612.5 554C608 538.7 596 523.3 600.5 508C605 492.7 626 477.3 614 461.8C602 446.3 557 430.7 570.5 415.2C584 399.7 656 384.3 645.5 369C635 353.7 542 338.3 522.5 323C503 307.7 557 292.3 576.5 277C596 261.7 581 246.3 575 231C569 215.7 572 200.3 566 184.8C560 169.3 545 153.7 557 138.2C569 122.7 608 107.3 623 92C638 76.7 629 61.3 614 46C599 30.7 578 15.3 567.5 7.7L557 0L612 0L627 7.7C642 15.3 672 30.7 684 46C696 61.3 690 76.7 679.5 92C669 107.3 654 122.7 645 138.2C636 153.7 633 169.3 634.5 184.8C636 200.3 642 215.7 643.5 231C645 246.3 642 261.7 631.5 277C621 292.3 603 307.7 631.5 323C660 338.3 735 353.7 744 369C753 384.3 696 399.7 673.5 415.2C651 430.7 663 446.3 658.5 461.8C654 477.3 633 492.7 631.5 508C630 523.3 648 538.7 663 554C678 569.3 690 584.7 696 592.3L702 600Z" fill="#59fe83"></path><path d="M458 600L453.5 592.3C449 584.7 440 569.3 440 554C440 538.7 449 523.3 473 508C497 492.7 536 477.3 540.5 461.8C545 446.3 515 430.7 510.5 415.2C506 399.7 527 384.3 507.5 369C488 353.7 428 338.3 432.5 323C437 307.7 506 292.3 524 277C542 261.7 509 246.3 503 231C497 215.7 518 200.3 507.5 184.8C497 169.3 455 153.7 441.5 138.2C428 122.7 443 107.3 452 92C461 76.7 464 61.3 473 46C482 30.7 497 15.3 504.5 7.7L512 0L558 0L568.5 7.7C579 15.3 600 30.7 615 46C630 61.3 639 76.7 624 92C609 107.3 570 122.7 558 138.2C546 153.7 561 169.3 567 184.8C573 200.3 570 215.7 576 231C582 246.3 597 261.7 577.5 277C558 292.3 504 307.7 523.5 323C543 338.3 636 353.7 646.5 369C657 384.3 585 399.7 571.5 415.2C558 430.7 603 446.3 615 461.8C627 477.3 606 492.7 601.5 508C597 523.3 609 538.7 613.5 554C618 569.3 615 584.7 613.5 592.3L612 600Z" fill="#32fd6b"></path><path d="M350 600L341 592.3C332 584.7 314 569.3 315.5 554C317 538.7 338 523.3 377 508C416 492.7 473 477.3 473 461.8C473 446.3 416 430.7 399.5 415.2C383 399.7 407 384.3 390.5 369C374 353.7 317 338.3 329 323C341 307.7 422 292.3 449 277C476 261.7 449 246.3 444.5 231C440 215.7 458 200.3 450.5 184.8C443 169.3 410 153.7 395 138.2C380 122.7 383 107.3 380 92C377 76.7 368 61.3 374 46C380 30.7 401 15.3 411.5 7.7L422 0L513 0L505.5 7.7C498 15.3 483 30.7 474 46C465 61.3 462 76.7 453 92C444 107.3 429 122.7 442.5 138.2C456 153.7 498 169.3 508.5 184.8C519 200.3 498 215.7 504 231C510 246.3 543 261.7 525 277C507 292.3 438 307.7 433.5 323C429 338.3 489 353.7 508.5 369C528 384.3 507 399.7 511.5 415.2C516 430.7 546 446.3 541.5 461.8C537 477.3 498 492.7 474 508C450 523.3 441 538.7 441 554C441 569.3 450 584.7 454.5 592.3L459 600Z" fill="#01ee59"></path><path d="M296 600L272 592.3C248 584.7 200 569.3 176 554C152 538.7 152 523.3 182 508C212 492.7 272 477.3 267.5 461.8C263 446.3 194 430.7 176 415.2C158 399.7 191 384.3 180.5 369C170 353.7 116 338.3 132.5 323C149 307.7 236 292.3 255.5 277C275 261.7 227 246.3 224 231C221 215.7 263 200.3 269 184.8C275 169.3 245 153.7 239 138.2C233 122.7 251 107.3 237.5 92C224 76.7 179 61.3 195.5 46C212 30.7 290 15.3 329 7.7L368 0L423 0L412.5 7.7C402 15.3 381 30.7 375 46C369 61.3 378 76.7 381 92C384 107.3 381 122.7 396 138.2C411 153.7 444 169.3 451.5 184.8C459 200.3 441 215.7 445.5 231C450 246.3 477 261.7 450 277C423 292.3 342 307.7 330 323C318 338.3 375 353.7 391.5 369C408 384.3 384 399.7 400.5 415.2C417 430.7 474 446.3 474 461.8C474 477.3 417 492.7 378 508C339 523.3 318 538.7 316.5 554C315 569.3 333 584.7 342 592.3L351 600Z" fill="#00d350"></path><path d="M0 600L0 592.3C0 584.7 0 569.3 0 554C0 538.7 0 523.3 0 508C0 492.7 0 477.3 0 461.8C0 446.3 0 430.7 0 415.2C0 399.7 0 384.3 0 369C0 353.7 0 338.3 0 323C0 307.7 0 292.3 0 277C0 261.7 0 246.3 0 231C0 215.7 0 200.3 0 184.8C0 169.3 0 153.7 0 138.2C0 122.7 0 107.3 0 92C0 76.7 0 61.3 0 46C0 30.7 0 15.3 0 7.7L0 0L369 0L330 7.7C291 15.3 213 30.7 196.5 46C180 61.3 225 76.7 238.5 92C252 107.3 234 122.7 240 138.2C246 153.7 276 169.3 270 184.8C264 200.3 222 215.7 225 231C228 246.3 276 261.7 256.5 277C237 292.3 150 307.7 133.5 323C117 338.3 171 353.7 181.5 369C192 384.3 159 399.7 177 415.2C195 430.7 264 446.3 268.5 461.8C273 477.3 213 492.7 183 508C153 523.3 153 538.7 177 554C201 569.3 249 584.7 273 592.3L297 600Z" fill="#00b846"></path></svg>